# xmcd
#
# Track frame offsets: 
#        150
#        13005
#        22858
#        36877
#        50763
#        69316
#        81328
#        96401
#        114494
#        126016
#        137529
#        147818
#        160442
#        174083
#        185359
#        194452
#        206931
#        222018
#        235084
#        249045
#
# Disc length: 3473 seconds
#
# Revision: 0
# Processed by: cddbd v1.5.2PL0 Copyright (c) Steve Scherf et al.
# Submitted via: ExactAudioCopy v0.99pb5
#
DISCID=110d8f14
DTITLE=Various Artist - Story Of Blues - The Definitive Blues Collection [CD1
DTITLE=)
DYEAR=2009
DGENRE=Blues
TTITLE0=Muddy Waters - Hoochie Coochie Man
TTITLE1=John Lee Hooker - Dimples
TTITLE2=Howlin' Wolf - Smokestack Lightnin'
TTITLE3=Jimmy Reed - You Don't Have To Go
TTITLE4=Robert Cray - The Score
TTITLE5=B.B. King - You've Been an Angel
TTITLE6=Ray Charles - Drown in My Own Tears
TTITLE7=Albert King - I'm Ready
TTITLE8=Lightnin' Hopkins - Lightnin's Boogie
TTITLE9=Little Walter - My Babe
TTITLE10=Memphis Slim - The Comeback
TTITLE11=Elmore James - The Sky Is Crying
TTITLE12=T-Bone Walker - Call It Stormy Monday (But Tuesday is Just as
TTITLE12=Bad)
TTITLE13=Robert Johnson - Walking Blues
TTITLE14=Snooky Pryor - You Tried To Ruin Me
TTITLE15=Big Joe Turner - Oke-She-Moke-She-Pop
TTITLE16=Big Bill Broonzy - Five Feet Seven
TTITLE17=Junior Wells - Junior's Wail
TTITLE18=Homesick James Williamson - Homesick
TTITLE19=Sonny Boy Williamson - Don't Start Me To Talkin'
EXTD=
EXTT0=
EXTT1=
EXTT2=
EXTT3=
EXTT4=
EXTT5=
EXTT6=
EXTT7=
EXTT8=
EXTT9=
EXTT10=
EXTT11=
EXTT12=
EXTT13=
EXTT14=
EXTT15=
EXTT16=
EXTT17=
EXTT18=
EXTT19=
PLAYORDER=
